<svg height="512pt" viewBox="0 0 512.13485 512" width="512pt" xmlns="http://www.w3.org/2000/svg"><path d="m365.105469 504.523438h-217.941407c4.992188-80.160157-13.863281-160.003907-54.1875-229.460938 8.410157-3.167969 16.640626-6.785156 24.664063-10.835938 6.738281-3.328124 13.652344-7.167968 20.648437-11.351562l210.945313-17.148438c21.230469 16.574219 44.851563 29.835938 70.058594 39.335938-40.324219 69.457031-59.179688 149.300781-54.1875 229.460938zm0 0" fill="#a4c2f7"/><path d="m326.023438 504.523438h-178.859376c4.992188-80.160157-13.863281-160.003907-54.1875-229.460938 8.410157-3.167969 16.640626-6.785156 24.664063-10.835938l193.191406-15.703124c21.234375 16.578124 44.855469 29.839843 70.058594 39.339843-38.164063 65.679688-57.171875 140.734375-54.867187 216.660157zm0 0" fill="#e3e7f2"/><path d="m169.523438 157.558594c1.421874-3.585938 2.171874-7.40625 2.214843-11.261719-.1875-12.054687-7.066406-23.003906-17.847656-28.402344-10.78125-5.402343-23.667969-4.351562-33.4375 2.714844-2.152344 1.542969-4.101563 3.347656-5.800781 5.375-.339844-2.433594-1-4.816406-1.960938-7.082031-4.792968-12.347656-16.707031-20.460938-29.953125-20.394532-6.832031.011719-13.484375 2.160157-19.03125 6.144532-8.066406 5.667968-12.996093 14.804687-13.296875 24.660156-.304687 9.855469 4.054688 19.28125 11.761719 25.429688-16.769531 2.046874-29 16.871093-27.816406 33.726562 1.183593 16.851562 15.363281 29.824219 32.253906 29.507812h82.601563l37.972656-38.316406c-2.070313-9.738281-8.617188-17.933594-17.660156-22.101562zm0 0" fill="#e3e7f2"/><path d="m318.511719 220.449219h-124.753907c20.304688-22.316407 37.03125-47.648438 49.578126-75.09375 4.605468-9.8125 8.875-20.222657 12.800781-31.316407 13.335937 39.34375 34.5625 75.554688 62.375 106.410157zm0 0" fill="#a4c2f7"/><path d="m292.914062 220.449219h-99.15625c20.304688-22.316407 37.03125-47.648438 49.578126-75.09375 12.546874 27.445312 29.269531 52.777343 49.578124 75.09375zm0 0" fill="#e3e7f2"/><path d="m346.800781 244.242188-204.628906 17.066406c19.539063-12.234375 37.335937-27.054688 52.90625-44.050782h122.796875c8.949219 9.707032 18.621094 18.726563 28.925781 26.984376zm0 0" fill="#a4c2f7"/><path d="m153.734375 503.5h-26.28125c0-138.238281-62.292969-199.851562-76.375-212.078125 17.710937-2.988281 35.050781-7.878906 51.710937-14.582031 38.121094 69.199218 55.789063 147.804687 50.945313 226.660156zm0 0" fill="#e3e7f2"/><path d="m461.191406 291.421875c-14.082031 12.226563-76.375 73.839844-76.375 212.078125h-26.28125c-4.84375-78.855469 12.824219-157.460938 50.945313-226.660156 16.664062 6.691406 34 11.582031 51.710937 14.582031zm0 0" fill="#7fabfa"/><path d="m324.402344 300.832031v202.667969h-136.535156v-169.640625l110.933593-26.796875zm0 0" fill="#7fabfa"/><path d="m298.800781 307.0625v196.4375h-110.933593v-169.640625zm0 0" fill="#a4c2f7"/><path d="m476.722656 72.226562c1.421875-3.585937 2.171875-7.40625 2.21875-11.265624-.152344-17.714844-14.625-31.960938-32.34375-31.828126-5.875-.015624-11.636718 1.609376-16.640625 4.691407-3.070312 1.796875-5.8125 4.105469-8.105469 6.828125-.324218-2.339844-.925781-4.628906-1.792968-6.828125-4.738282-12.5-16.753906-20.734375-30.121094-20.648438-5.859375.007813-11.609375 1.597657-16.640625 4.609375-8.980469 5.167969-14.824219 14.441406-15.609375 24.773438-.785156 10.332031 3.589844 20.382812 11.683594 26.851562-16.769532 2.042969-28.996094 16.871094-27.816406 33.722656 1.183593 16.855469 15.363281 29.828126 32.253906 29.507813h88.917968c17.71875.132813 32.191407-14.113281 32.339844-31.828125-.050781-12.28125-7.203125-23.421875-18.34375-28.585938zm0 0" fill="#e3e7f2"/><path d="m139.65625 161.824219c1.421875-3.585938 2.171875-7.402344 2.21875-11.261719-.066406-13.515625-8.652344-25.519531-21.421875-29.953125-2.511719-.867187-5.117187-1.441406-7.761719-1.707031-1.027344-.085938-2.136718-.167969-3.160156-.167969-9.984375 0-25.199219-27.222656-31.171875-20.226563-1.707031-11.945312-15.929687 8.535157-27.023437 4.726563-8.109376 5.71875-.941407 16.523437-.941407 27.105469.050781 9.492187 4.375 18.457031 11.777344 24.402344-16.769531 2.046874-29 16.871093-27.816406 33.726562 1.183593 16.851562 15.363281 29.824219 32.253906 29.507812h57.003906l33.707031-34.050781c-2.074218-9.738281-8.621093-17.929687-17.664062-22.101562zm0 0" fill="#d4e1f4"/><path d="m455.386719 76.492188c3.601562-9.042969 2.792969-19.242188-2.191407-27.605469-4.980468-8.359375-13.570312-13.925781-23.238281-15.0625-1.542969-.3125-3.117187-.457031-4.691406-.425781-1.742187.011718-3.484375.15625-5.207031.425781-7.847656 1.28125-14.617188-26.367188-19.566406-20.648438-1.960938-13.996093-13.03125 6.65625-27.195313 4.609375-8.980469 5.167969-14.824219 14.441406-15.609375 24.773438-.785156 10.332031 3.589844 20.382812 11.683594 26.851562-16.769532 2.042969-28.996094 16.871094-27.816406 33.722656 1.183593 16.855469 15.363281 29.828126 32.253906 29.507813h83.714844c10.378906-5.757813 16.640624-16.867187 16.1875-28.730469-.449219-11.863281-7.535157-22.460937-18.324219-27.417968zm0 0" fill="#d4e1f4"/><path d="m337.046875 310.179688-154.453125 35.105468c-4.933594 1.117188-10.109375-.070312-14.066406-3.226562-3.953125-3.160156-6.257813-7.945313-6.257813-13.003906.003907-7.765626 5.378907-14.492188 12.953125-16.214844l154.453125-35.105469c4.933594-1.117187 10.105469.066406 14.058594 3.222656 3.953125 3.152344 6.261719 7.933594 6.265625 12.992188.003906 7.769531-5.375 14.507812-12.953125 16.230469zm0 0" fill="#a4c2f7"/><path d="m503.601562 279.757812c-.261718 10.6875-9.109374 19.152344-19.796874 18.941407-.171876 0-2.304688 0-6.058594-.339844-1.535156-9.527344-9.808594-16.492187-19.457032-16.382813-7.167968-.085937-175.957031-3.925781-208.128906-231l-.253906-1.023437c-.121094-.722656-.292969-1.433594-.511719-2.132813-.171875-.511718-.425781-1.023437-.597656-1.535156-.277344-.644531-.59375-1.269531-.9375-1.878906-.257813-.425781-.597656-.851562-.855469-1.363281-.425781-.597657-.851562-1.109375-1.363281-1.707031-.292969-.363282-.605469-.703126-.941406-1.023438-.554688-.5625-1.152344-1.074219-1.792969-1.539062-.332031-.300782-.707031-.558594-1.105469-.765626-.640625-.496093-1.324219-.925781-2.050781-1.28125-.425781-.171874-.9375-.425781-1.363281-.597656l-2.050781-.765625c-.253907-.085937-.425782-.085937-.679688-.171875.339844-1.792968.597656-3.667968.851562-5.546875.085938-.339843.257813-.683593.339844-1.109375.09375-.664062.238282-1.320312.429688-1.960937.253906-.597657.425781-1.195313.679687-1.707031.257813-.511719.515625-1.109376.769531-1.621094.257813-.511719.769532-1.195313 1.109376-1.707032.339843-.511718.683593-.941406 1.023437-1.367187.441406-.523437.925781-1.011719 1.453125-1.449219.375-.394531.773438-.761718 1.191406-1.109375.535156-.445312 1.105469-.847656 1.707032-1.195312.464843-.316407.949218-.601563 1.453124-.851563.609376-.320312 1.234376-.605468 1.875-.855468.554688-.238282 1.125-.4375 1.707032-.597657.671875-.210937 1.355468-.382812 2.046875-.511719l1.195312-.253906h.597657c1.363281-.117187 2.734374-.117187 4.097656 0h.597656l1.277344.253906c.597656.171876 1.28125.257813 1.878906.425782l2.046875.769531c.429687.171875.941406.425781 1.367187.597656.722657.355469 1.410157.785157 2.046876 1.28125.402343.203125.777343.460938 1.109374.765625.640626.460938 1.238282.976563 1.792969 1.535156.335938.320313.648438.664063.9375 1.027344.511719.59375.9375 1.105469 1.367188 1.703125.253906.511719.597656.941407.851562 1.367188.347657.609375.660157 1.234375.9375 1.878906.171875.511719.429688 1.023437.597657 1.535156.222656.695313.394531 1.410157.511718 2.132813l.257813 1.023437c32.171875 227.070313 200.960937 230.910157 208.128906 230.996094 10.703125-.121094 19.503906 8.410156 19.710937 19.117187zm0 0" fill="#7fabfa"/><path d="m477.746094 298.359375c-3.839844-.257813-9.558594-.851563-16.554688-2.046875-17.691406-2.925781-35.023437-7.699219-51.710937-14.25-23.769531-9.226562-45.984375-22.03125-65.878907-37.976562-9.972656-7.988282-19.328124-16.71875-27.988281-26.109376-26.527343-29.421874-46.765625-63.945312-59.476562-101.460937-4.964844 14.140625-10.925781 27.914063-17.835938 41.214844-11.09375 21.871093-25.101562 42.136719-41.644531 60.246093-11.261719 12.253907-23.726562 23.34375-37.203125 33.109376-4.695313 3.410156-9.386719 6.65625-14.082031 9.554687-13.511719 8.421875-27.765625 15.589844-42.582032 21.421875-16.683593 6.558594-34.019531 11.335938-51.710937 14.25-7.46875 1.351562-15.027344 2.148438-22.613281 2.386719-9.953125.152343-18.4375-7.191407-19.710938-17.066407-.070312-.652343-.101562-1.304687-.085937-1.960937.085937-5.140625 2.214843-10.03125 5.910156-13.601563 3.699219-3.570312 8.664063-5.523437 13.800781-5.429687 37.699219-2.207031 74.003906-15.046875 104.707032-37.035156 2.558593-1.789063 5.03125-3.667969 7.59375-5.628907 14.253906-11.085937 27.015624-23.964843 37.972656-38.316406 25.601562-32.9375 47.019531-79.273437 57.003906-144.46875.253906.085938.425781.085938.679688.171875l2.050781.765625c.425781.171875.9375.425782 1.363281.597656.726562.355469 1.410156.785157 2.050781 1.28125.398438.207032.773438.464844 1.105469.765626.640625.464843 1.238281.976562 1.792969 1.539062.335937.320312.648437.660156.941406 1.023438.511719.597656.9375 1.109374 1.363281 1.707031.257813.511719.597656.9375.855469 1.363281.34375.609375.660156 1.234375.9375 1.878906.171875.511719.425781 1.023438.597656 1.535156.21875.699219.390625 1.410157.511719 2.132813l.253906 1.023437c32.171875 227.074219 200.960938 230.914063 208.128906 231 9.648438-.109374 17.921876 6.855469 19.457032 16.382813zm0 0" fill="#e3e7f2"/><path d="m172.765625 504.523438c0-.339844 0-.679688.050781-1.023438h-19.765625c0-127.085938-52.53125-189.261719-71.976562-208.007812-1.441407.265624-3.046875.605468-4.394531.851562-6.011719 1.035156-12.074219 1.765625-18.160157 2.195312 21.410157 21.9375 68.933594 84.179688 68.933594 204.960938h19.761719c0 .34375 0 .683594-.050782 1.023438zm0 0" fill="#fff"/><path d="m34.269531 186.144531c.148438 17.71875 14.625 31.964844 32.339844 31.832031h25.601563c-16.894532.316407-31.074219-12.65625-32.253907-29.507812-1.183593-16.855469 11.042969-31.679688 27.816407-33.726562-7.402344-5.945313-11.726563-14.910157-11.777344-24.402344 0-10.582032-7.167969-21.386719.9375-27.105469 4.980468.855469 10.089844-.449219 14.046875-3.589844-2.234375-.582031-4.519531-.925781-6.828125-1.023437-2.335938-1.46875-4.351563-1.820313-5.800782-.113282-1.707031-11.945312-15.933593 8.535157-27.023437 4.726563-8.109375 5.71875-.941406 16.523437-.941406 27.105469.050781 9.492187 4.375 18.457031 11.777343 24.402344-15.863281 1.980468-27.800781 15.417968-27.894531 31.402343zm0 0" fill="#fff"/><path d="m261.253906 35.191406c.34375-1.792968.597656-3.667968.855469-5.546875.085937-.339843.253906-.683593.339844-1.109375.09375-.664062.234375-1.320312.425781-1.960937.257812-.597657.429688-1.195313.683594-1.707031.257812-.511719.511718-1.109376.769531-1.621094.253906-.511719.765625-1.195313 1.109375-1.707032.339844-.511718.679688-.941406 1.023438-1.367187.4375-.523437.925781-1.011719 1.449218-1.449219.359375-.359375.667969-.640625 1.007813-.929687-.136719-.113281-.273438-.257813-.410157-.351563-.332031-.304687-.707031-.5625-1.109374-.765625-.636719-.496093-1.324219-.925781-2.046876-1.28125-.425781-.171875-.9375-.425781-1.367187-.597656l-2.046875-.769531c-.597656-.167969-1.28125-.253906-1.878906-.425782l-1.277344-.253906h-.597656c-1.363282-.117187-2.734375-.117187-4.097656 0h-.597657l-1.195312.253906c-.691407.128907-1.375.300782-2.046875.511719-.582032.160157-1.152344.359375-1.707032.597657-.640624.25-1.265624.535156-1.875.855468-.503906.25-.988281.535156-1.453124.851563-.601563.347656-1.171876.75-1.707032 1.195312-.417968.347657-.816406.714844-1.191406 1.109375-.527344.4375-1.011719.925782-1.453125 1.449219-.339844.425781-.683594.855469-1.023437 1.367187-.339844.511719-.769532 1.109376-1.109376 1.707032-.339843.597656-.511718 1.023437-.769531 1.621094-.253906.597656-.425781 1.109374-.679687 1.707031-.191406.640625-.335938 1.296875-.429688 1.960937-.082031.425782-.253906.769532-.339844 1.109375-.253906 1.878907-.511718 3.753907-.851562 5.546875-5.527344 41.484375-18.847656 81.546875-39.253906 118.085938-.335938 1.445312-.757813 2.871094-1.265625 4.265625 6.375 2.992187 11.578125 8.011719 14.789062 14.277343 23.03125-32.335937 42.097657-76.339843 51.328125-136.628906zm0 0" fill="#fff"/><path d="m28.464844 298.699219c5.945312-.167969 11.875-.707031 17.75-1.621094-6.472656-2.605469-11.015625-8.519531-11.859375-15.445313-.074219-.652343-.101563-1.304687-.085938-1.960937.085938-5.140625 2.210938-10.03125 5.910157-13.601563 3.699218-3.570312 8.664062-5.523437 13.800781-5.429687 37.699219-2.207031 74-15.046875 104.703125-37.035156 2.5625-1.789063 5.035156-3.667969 7.59375-5.628907h-25.597656c-2.5625 1.960938-5.035157 3.839844-7.59375 5.628907-30.703126 21.988281-67.007813 34.828125-104.707032 37.035156-5.136718-.09375-10.101562 1.859375-13.800781 5.429687-3.695313 3.570313-5.824219 8.460938-5.910156 13.601563-.015625.65625.015625 1.308594.085937 1.960937 1.273438 9.875 9.757813 17.21875 19.710938 17.066407zm0 0" fill="#fff"/><path d="m53.222656 287.179688c15.078125 12.550781 27.988282 27.492187 38.21875 44.230468 10.164063 16.207032 18.558594 33.460938 25.027344 51.464844 13.210938 38.832031 19.796875 79.609375 19.492188 120.625h-17.066407c.289063-39.050781-5.972656-77.871094-18.527343-114.847656-6.046876-16.820313-13.882813-32.941406-23.371094-48.085938-2.304688-3.796875-4.800782-7.472656-7.476563-11.019531-2.515625-3.660156-5.359375-7.039063-8.148437-10.453125-5.457032-6.585938-11.527344-12.640625-18.132813-18.070312zm0 0" fill="#fff"/><g fill="#428dff"><path d="m77.039062 325.382812c1.863282-1.359374 3.089844-3.429687 3.394532-5.71875.300781-2.289062-.34375-4.605468-1.792969-6.40625-7.386719-9.6875-15.921875-18.445312-25.417969-26.078124l-9.984375 13.84375c8.1875 6.726562 15.570313 14.378906 21.996094 22.808593 2.90625 3.558594 8.078125 4.238281 11.804687 1.550781zm0 0"/><path d="m118.894531 503.5h17.066407c.292968-41.019531-6.308594-81.796875-19.535157-120.625l-3.199219-8.203125c-.777343-2.148437-2.410156-3.882813-4.511718-4.792969-2.097656-.90625-4.480469-.90625-6.582032 0-4.269531 1.855469-6.371093 6.707032-4.804687 11.089844l3.011719 7.683594c12.566406 36.976562 18.835937 75.796875 18.554687 114.847656zm0 0"/><path d="m98.183594 342.808594c-1.117188-2.023438-2.964844-3.550782-5.164063-4.265625l-1.65625-.230469c-.570312-.027344-1.144531.019531-1.707031.136719-.542969.039062-1.078125.160156-1.585938.359375-.53125.210937-1.050781.460937-1.550781.742187-1.890625 1.1875-3.269531 3.039063-3.875 5.1875-.285156 1.074219-.363281 2.195313-.230469 3.300781.378907 3.34375 2.738282 6.125 5.972657 7.042969 1.089843.277344 2.21875.355469 3.335937.230469 1.117188-.078125 2.210938-.367188 3.21875-.855469 1.992188-1.050781 3.488282-2.84375 4.164063-4.992187.535156-2.253906.207031-4.628906-.921875-6.65625zm0 0"/><path d="m483.847656 302.632812c-1.628906 0-157.320312-1.976562-227.695312-167.25-70.375 165.238282-226.058594 167.25-227.6875 167.25-10.046875.324219-19.476563-4.847656-24.605469-13.492187s-5.148437-19.398437-.046875-28.0625 14.511719-13.867187 24.558594-13.578125c6.828125-.058594 168.621094-3.96875 199.679687-223.667969.0625-.410156.289063-1.414062.410157-1.816406.183593-.929687.421874-1.851563.707031-2.757813.273437-.851562.617187-1.703124.984375-2.507812.335937-.789062.714844-1.5625 1.132812-2.3125.488282-.886719 1.03125-1.742188 1.628906-2.558594.378907-.539062.855469-1.167968 1.359376-1.785156.660156-.773438 1.363281-1.511719 2.105468-2.210938.589844-.511718 1.171875-1.023437 1.835938-1.527343.78125-.613281 1.597656-1.179688 2.441406-1.703125.691406-.445313 1.371094-.855469 2.097656-1.246094.882813-.457031 1.789063-.863281 2.714844-1.222656.757812-.304688 1.527344-.597656 2.328125-.851563.972656-.292969 1.964844-.503906 2.96875-.699219.535156-.152343 1.074219-.265624 1.625-.34375.332031-.074218 1.183594-.085937 1.527344-.101562 1.683593-.1601562 3.382812-.1601562 5.066406 0 .324219-.015625.652344.003906.972656.058594.601563.085937 1.191407.207031 1.777344.367187.851563.179688 1.746094.367188 2.625.632813.996094.300781 1.972656.652344 2.929687 1.058594.757813.316406 1.390626.589843 2.003907.902343 1.003906.511719 1.976562 1.082031 2.910156 1.707031.503906.34375 1.058594.71875 1.578125 1.128907.882812.675781 1.71875 1.417969 2.5 2.207031.46875.460938.941406.941406 1.375 1.445312.71875.808594 1.386719 1.664063 1.996094 2.558594.394531.5625.8125 1.210938 1.195312 1.886719.507813.886719.964844 1.804687 1.363282 2.746094.34375.792969.632812 1.511719.855468 2.261719.324219 1.007812.582032 2.03125.777344 3.070312.171875.515625.289062 1.042969.355469 1.582031 31.140625 219.894531 192.949219 223.648438 199.777343 223.699219 9.960938-.148438 19.230469 5.089844 24.242188 13.703125s4.984375 19.261719-.070312 27.847656c-5.054688 8.589844-14.347657 13.78125-24.308594 13.582031zm-227.710937-199.292968c3.613281.003906 6.832031 2.28125 8.035156 5.691406 61.261719 173.226562 218.113281 176.519531 219.683594 176.535156 3.910156.25 7.636719-1.695312 9.667969-5.046875 2.03125-3.351562 2.03125-7.554687 0-10.90625-2.03125-3.351562-5.757813-5.296875-9.667969-5.046875-7.492188-.058594-183.390625-4.085937-216.535157-238.34375 0 .246094-.09375-.101562-.167968-.496094-.078125-.390624-.164063-.851562-.273438-1.167968l-.324218-.851563c-.136719-.339843-.296876-.667969-.476563-.984375l-.488281-.742187c-.230469-.347657-.480469-.683594-.75-1.003907l-.5625-.574218c-.296875-.304688-.609375-.589844-.941406-.851563l-.699219-.488281c-.359375-.25-.734375-.476562-1.125-.671875l-.855469-.367187c-.375-.15625-.765625-.316407-1.167969-.4375-.402343-.117188-.742187-.167969-1.109375-.246094-.121094 0-.425781-.09375-.683594-.152344h-.339843c-.46875 0-.855469 0-1.289063 0s-.777344 0-1.160156 0h-.503906c-.964844.230469-1.355469.296875-1.75.417969-.390625.117187-.628906.230469-.9375.347656-.382813.148437-.753906.316406-1.117188.503906l-.804687.488281c-.332031.210938-.65625.425782-.972657.671876l-.648437.582031c-.296875.269531-.582031.554687-.851563.851562l-.46875.640625c-.238281.308594-.457031.632813-.648437.972656-.171875.308594-.292969.605469-.429687.90625-.136719.292969-.257813.59375-.363282.902344-.109375.367188-.195312.742188-.257812 1.117188-.050782.230468-.230469.929687-.296875 1.152344-33 233.558593-208.878907 237.757812-216.382813 237.824218-3.9375-.296875-7.714844 1.636719-9.777344 5.007813-2.058593 3.371093-2.058593 7.613281 0 10.984375 2.0625 3.371094 5.839844 5.304687 9.777344 5.007812 1.546875 0 158.386719-3.292968 219.648438-176.535156 1.203125-3.402344 4.410156-5.679688 8.015625-5.691406zm0 0"/><path d="m384.808594 512.035156h-257.382813c-4.710937 0-8.53125-3.820312-8.53125-8.535156 0-4.710938 3.820313-8.53125 8.53125-8.53125h248.933594c2.835937-148.480469 79.363281-205.398438 82.648437-207.789062 3.816407-2.761719 9.152344-1.902344 11.914063 1.917968 2.761719 3.820313 1.90625 9.152344-1.914063 11.914063-.800781.589843-75.664062 56.988281-75.664062 202.488281 0 4.714844-3.820312 8.535156-8.535156 8.535156zm0 0"/><path d="m435.335938 512.035156h-347.511719c-4.714844 0-8.535157-3.820312-8.535157-8.535156 0-4.710938 3.820313-8.53125 8.535157-8.53125h347.511719c4.710937 0 8.53125 3.820312 8.53125 8.53125 0 4.714844-3.820313 8.535156-8.53125 8.535156zm0 0"/><path d="m324.402344 512.035156h-136.535156c-4.710938 0-8.53125-3.820312-8.53125-8.535156v-159.402344c0-4.710937 3.820312-8.53125 8.53125-8.53125 4.714843 0 8.535156 3.820313 8.535156 8.53125v150.871094h119.464844v-181.933594c0-4.710937 3.820312-8.53125 8.535156-8.53125 4.710937 0 8.53125 3.820313 8.53125 8.53125v190.464844c0 4.714844-3.820313 8.535156-8.53125 8.535156zm0 0"/><path d="m178.855469 354.234375c-12.792969-.054687-23.515625-9.695313-24.921875-22.414063-1.402344-12.71875 6.953125-24.46875 19.429687-27.316406l154.453125-35.105468c13.4375-2.78125 26.628906 5.714843 29.652344 19.101562 3.027344 13.386719-5.230469 26.730469-18.5625 29.996094l-154.453125 35.109375c-1.835937.414062-3.710937.625-5.597656.628906zm154.523437-68.394531c-.609375-.003906-1.214844.066406-1.808594.207031l-154.453124 35.097656c-2.824219.640625-5.09375 2.742188-5.949219 5.507813s-.171875 5.78125 1.796875 7.90625 4.917968 3.039062 7.742187 2.398437l154.453125-35.097656c4.035156-.90625 6.742188-4.699219 6.285156-8.808594-.457031-4.109375-3.933593-7.214843-8.066406-7.210937zm0 0"/><path d="m222 392.566406c-4.710938 0-8.53125-3.820312-8.53125-8.53125v-47.703125c0-4.710937 3.820312-8.53125 8.53125-8.53125 4.714844 0 8.535156 3.820313 8.535156 8.53125v47.703125c0 4.710938-3.820312 8.53125-8.535156 8.53125zm0 0"/><path d="m222 512.035156c-4.710938 0-8.53125-3.820312-8.53125-8.535156v-85.332031c0-4.714844 3.820312-8.535157 8.53125-8.535157 4.714844 0 8.535156 3.820313 8.535156 8.535157v85.332031c0 4.714844-3.820312 8.535156-8.535156 8.535156zm0 0"/><path d="m290.269531 392.566406c-4.714843 0-8.535156-3.820312-8.535156-8.53125v-63.234375c0-4.710937 3.820313-8.53125 8.535156-8.53125 4.710938 0 8.53125 3.820313 8.53125 8.53125v63.234375c0 4.710938-3.820312 8.53125-8.53125 8.53125zm0 0"/><path d="m290.269531 512.035156c-4.714843 0-8.535156-3.820312-8.535156-8.535156v-85.332031c0-4.714844 3.820313-8.535157 8.535156-8.535157 4.710938 0 8.53125 3.820313 8.53125 8.535157v85.332031c0 4.714844-3.820312 8.535156-8.53125 8.535156zm0 0"/><path d="m256.136719 512.035156c-4.714844 0-8.535157-3.820312-8.535157-8.535156v-51.199219c0-4.714843 3.820313-8.535156 8.535157-8.535156 4.710937 0 8.53125 3.820313 8.53125 8.535156v51.199219c0 4.714844-3.820313 8.535156-8.53125 8.535156zm0 0"/><path d="m256.136719 426.699219c-4.714844 0-8.535157-3.820313-8.535157-8.53125v-89.601563c0-4.710937 3.820313-8.53125 8.535157-8.53125 4.710937 0 8.53125 3.820313 8.53125 8.53125v89.601563c0 4.710937-3.820313 8.53125-8.53125 8.53125zm0 0"/><path d="m51.335938 512.035156h-42.667969c-4.710938 0-8.53125-3.820312-8.53125-8.535156 0-4.710938 3.820312-8.53125 8.53125-8.53125h42.667969c4.710937 0 8.53125 3.820312 8.53125 8.53125 0 4.714844-3.820313 8.535156-8.53125 8.535156zm0 0"/><path d="m503.601562 512.035156h-34.132812c-4.714844 0-8.535156-3.820312-8.535156-8.535156 0-4.710938 3.820312-8.53125 8.535156-8.53125h34.132812c4.710938 0 8.535157 3.820312 8.535157 8.53125 0 4.714844-3.824219 8.535156-8.535157 8.535156zm0 0"/><path d="m462.734375 136.566406h-88.933594c-18.675781.308594-35.105469-12.28125-39.664062-30.394531-4.558594-18.113281 3.953125-36.980469 20.550781-45.550781-3.632812-6.113282-5.546875-13.089844-5.539062-20.199219.261718-18.597656 13.050781-34.675781 31.113281-39.109375 18.066406-4.433594 36.84375 3.894531 45.6875 20.257812 12.554687-7.339843 28.066406-7.449218 40.726562-.28125 12.65625 7.164063 20.546875 20.519532 20.710938 35.066407.003906 2.429687-.234375 4.851562-.707031 7.234375 10.617187 7.453125 16.933593 19.617187 16.921874 32.589844-.160156 22.425781-18.441406 40.492187-40.867187 40.386718zm-72.753906-119.464844c-12.992188-.097656-23.617188 10.328126-23.765625 23.320313.042968 6.898437 3.175781 13.414063 8.535156 17.757813 2.609375 2.15625 3.703125 5.652343 2.777344 8.910156-.925782 3.261718-3.691406 5.664062-7.046875 6.125-12.3125 1.472656-21.300781 12.355468-20.414063 24.726562.886719 12.371094 11.335938 21.863282 23.734375 21.558594h88.933594c13.007813.117188 23.65625-10.316406 23.800781-23.320312-.039062-8.996094-5.296875-17.152344-13.472656-20.898438-4.019531-1.925781-5.878906-6.621094-4.269531-10.777344 1.027343-2.597656 1.570312-5.359375 1.597656-8.148437-.152344-13.007813-10.800781-23.441407-23.808594-23.324219-7.023437.027344-13.675781 3.148438-18.183593 8.535156-2.175782 2.5625-5.65625 3.613282-8.882813 2.675782-3.230469-.9375-5.609375-3.679688-6.078125-7.011719-1.753906-11.59375-11.730469-20.15625-23.457031-20.128907zm0 0"/><path d="m140.679688 221.902344h-82.601563c-18.671875.320312-35.109375-12.261719-39.671875-30.367188-4.5625-18.109375 3.949219-36.976562 20.546875-45.539062-3.675781-6.121094-5.621094-13.125-5.625-20.265625.320313-18.609375 13.144531-34.667969 31.222656-39.089844 18.082031-4.421875 36.871094 3.902344 45.742188 20.265625 12.554687-7.335938 28.066406-7.441406 40.722656-.277344 12.652344 7.164063 20.542969 20.515625 20.714844 35.058594 0 2.445312-.246094 4.882812-.734375 7.277344 8.203125 5.820312 13.917968 14.503906 16.019531 24.339844.714844 3.019531-.265625 6.1875-2.558594 8.277343-2.296875 2.089844-5.542969 2.769531-8.480469 1.773438-2.941406-.996094-5.109374-3.507813-5.660156-6.5625-1.542968-7.097657-6.328125-13.0625-12.921875-16.109375-4.058593-1.890625-5.964843-6.597656-4.367187-10.777344 1.074218-2.609375 1.652344-5.398438 1.707031-8.21875-.214844-9.917969-6.558594-18.664062-15.917969-21.949219-9.359375-3.285156-19.777344-.421875-26.144531 7.1875-2.175781 2.550781-5.652344 3.59375-8.875 2.65625s-5.597656-3.675781-6.066406-7c-1.898438-12.175781-12.785157-20.882812-25.078125-20.0625-12.292969.816407-21.925782 10.890625-22.195313 23.210938.039063 6.917969 3.183594 13.453125 8.558594 17.808593 2.625 2.152344 3.722656 5.65625 2.796875 8.925782-.925781 3.265625-3.699219 5.671875-7.0625 6.128906-11.648438 1.367188-20.441406 11.214844-20.480469 22.945312.15625 13 10.804688 23.417969 23.808594 23.292969h82.601563c4.710937 0 8.53125 3.824219 8.53125 8.535157 0 4.714843-3.820313 8.535156-8.53125 8.535156zm0 0"/><path d="m153.734375 512.035156c-.1875 0-.382813 0-.570313 0-2.265624-.148437-4.375-1.191406-5.871093-2.898437-1.492188-1.703125-2.246094-3.9375-2.089844-6.199219 4.515625-75.539062-12.800781-150.78125-49.886719-216.746094-2.527344-3.976562-1.355468-9.253906 2.625-11.78125 3.976563-2.527344 9.25-1.351562 11.777344 2.625 39.425781 68.875 57.703125 147.835938 52.550781 227.027344-.296875 4.492188-4.035156 7.980469-8.535156 7.972656zm0 0"/><path d="m358.535156 512.035156c-4.5.007813-8.238281-3.480468-8.535156-7.972656-5.15625-79.175781 13.109375-158.117188 52.515625-226.984375 2.527344-3.980469 7.800781-5.152344 11.78125-2.625 3.976563 2.527344 5.152344 7.800781 2.621094 11.78125-37.0625 65.953125-54.371094 141.179687-49.851563 216.703125.15625 2.265625-.597656 4.496094-2.09375 6.203125s-3.609375 2.75-5.875 2.894531c-.1875 0-.382812 0-.5625 0zm0 0"/><path d="m315.867188 221.902344h-119.464844c-4.714844 0-8.535156-3.820313-8.535156-8.535156 0-4.710938 3.820312-8.535157 8.535156-8.535157h119.464844c4.714843 0 8.535156 3.824219 8.535156 8.535157 0 4.714843-3.820313 8.535156-8.535156 8.535156zm0 0"/><path d="m145.203125 264.566406c-4.714844 0-8.535156-3.820312-8.535156-8.53125 0-4.714844 3.820312-8.535156 8.535156-8.535156l197.691406-16.527344c2.257813-.214844 4.511719.492188 6.242188 1.960938 1.734375 1.46875 2.800781 3.574218 2.964843 5.835937.394532 4.699219-3.09375 8.824219-7.792968 9.21875l-198.253906 16.578125c-.214844 0-.621094 0-.851563 0zm0 0"/></g></svg>